G04 #@! TF.GenerationSoftware,KiCad,Pcbnew,6.0.0-unknown-r15630-3caa4376*
G04 #@! TF.CreationDate,2019-05-16T13:37:44+01:00*
G04 #@! TF.ProjectId,FuelGauge,4675656c-4761-4756-9765-2e6b69636164,1.0*
G04 #@! TF.SameCoordinates,Original*
G04 #@! TF.FileFunction,Soldermask,Bot*
G04 #@! TF.FilePolarity,Negative*
%FSLAX46Y46*%
G04 Gerber Fmt 4.6, Leading zero omitted, Abs format (unit mm)*
G04 Created by KiCad (PCBNEW 6.0.0-unknown-r15630-3caa4376) date 2019-05-16 13:37:44*
%MOMM*%
%LPD*%
G04 APERTURE LIST*
%ADD10C,0.100000*%
G04 APERTURE END LIST*
D10*
G36*
X149490442Y-97125518D02*
G01*
X149556627Y-97132037D01*
X149726466Y-97183557D01*
X149882991Y-97267222D01*
X149893682Y-97275996D01*
X150020186Y-97379814D01*
X150103448Y-97481271D01*
X150132778Y-97517009D01*
X150216443Y-97673534D01*
X150267963Y-97843373D01*
X150285359Y-98020000D01*
X150267963Y-98196627D01*
X150216443Y-98366466D01*
X150132778Y-98522991D01*
X150107317Y-98554015D01*
X150020186Y-98660186D01*
X149933060Y-98731687D01*
X149882991Y-98772778D01*
X149726466Y-98856443D01*
X149556627Y-98907963D01*
X149490442Y-98914482D01*
X149424260Y-98921000D01*
X149335740Y-98921000D01*
X149269557Y-98914481D01*
X149203373Y-98907963D01*
X149033534Y-98856443D01*
X148877009Y-98772778D01*
X148826940Y-98731687D01*
X148739814Y-98660186D01*
X148652683Y-98554015D01*
X148627222Y-98522991D01*
X148543557Y-98366466D01*
X148492037Y-98196627D01*
X148474641Y-98020000D01*
X148492037Y-97843373D01*
X148543557Y-97673534D01*
X148627222Y-97517009D01*
X148656552Y-97481271D01*
X148739814Y-97379814D01*
X148866318Y-97275996D01*
X148877009Y-97267222D01*
X149033534Y-97183557D01*
X149203373Y-97132037D01*
X149269558Y-97125518D01*
X149335740Y-97119000D01*
X149424260Y-97119000D01*
X149490442Y-97125518D01*
X149490442Y-97125518D01*
G37*
G36*
X146148823Y-97148313D02*
G01*
X146309242Y-97196976D01*
X146374739Y-97231985D01*
X146457078Y-97275996D01*
X146586659Y-97382341D01*
X146693004Y-97511922D01*
X146693005Y-97511924D01*
X146772024Y-97659758D01*
X146820687Y-97820177D01*
X146837117Y-97987000D01*
X146820687Y-98153823D01*
X146772024Y-98314242D01*
X146743249Y-98368076D01*
X146693004Y-98462078D01*
X146586659Y-98591659D01*
X146457078Y-98698004D01*
X146457076Y-98698005D01*
X146309242Y-98777024D01*
X146148823Y-98825687D01*
X146023804Y-98838000D01*
X145940196Y-98838000D01*
X145815177Y-98825687D01*
X145654758Y-98777024D01*
X145506924Y-98698005D01*
X145506922Y-98698004D01*
X145377341Y-98591659D01*
X145270996Y-98462078D01*
X145220751Y-98368076D01*
X145191976Y-98314242D01*
X145143313Y-98153823D01*
X145126883Y-97987000D01*
X145143313Y-97820177D01*
X145191976Y-97659758D01*
X145270995Y-97511924D01*
X145270996Y-97511922D01*
X145377341Y-97382341D01*
X145506922Y-97275996D01*
X145589261Y-97231985D01*
X145654758Y-97196976D01*
X145815177Y-97148313D01*
X145940196Y-97136000D01*
X146023804Y-97136000D01*
X146148823Y-97148313D01*
X146148823Y-97148313D01*
G37*
G36*
X138528823Y-97148313D02*
G01*
X138689242Y-97196976D01*
X138754739Y-97231985D01*
X138837078Y-97275996D01*
X138966659Y-97382341D01*
X139073004Y-97511922D01*
X139073005Y-97511924D01*
X139152024Y-97659758D01*
X139200687Y-97820177D01*
X139217117Y-97987000D01*
X139200687Y-98153823D01*
X139152024Y-98314242D01*
X139123249Y-98368076D01*
X139073004Y-98462078D01*
X138966659Y-98591659D01*
X138837078Y-98698004D01*
X138837076Y-98698005D01*
X138689242Y-98777024D01*
X138528823Y-98825687D01*
X138403804Y-98838000D01*
X138320196Y-98838000D01*
X138195177Y-98825687D01*
X138034758Y-98777024D01*
X137886924Y-98698005D01*
X137886922Y-98698004D01*
X137757341Y-98591659D01*
X137650996Y-98462078D01*
X137600751Y-98368076D01*
X137571976Y-98314242D01*
X137523313Y-98153823D01*
X137506883Y-97987000D01*
X137523313Y-97820177D01*
X137571976Y-97659758D01*
X137650995Y-97511924D01*
X137650996Y-97511922D01*
X137757341Y-97382341D01*
X137886922Y-97275996D01*
X137969261Y-97231985D01*
X138034758Y-97196976D01*
X138195177Y-97148313D01*
X138320196Y-97136000D01*
X138403804Y-97136000D01*
X138528823Y-97148313D01*
X138528823Y-97148313D01*
G37*
G36*
X153438228Y-97074703D02*
G01*
X153593100Y-97138853D01*
X153732481Y-97231985D01*
X153851015Y-97350519D01*
X153944147Y-97489900D01*
X154008297Y-97644772D01*
X154041000Y-97809184D01*
X154041000Y-97976816D01*
X154008297Y-98141228D01*
X153944147Y-98296100D01*
X153851015Y-98435481D01*
X153732481Y-98554015D01*
X153593100Y-98647147D01*
X153438228Y-98711297D01*
X153273816Y-98744000D01*
X153106184Y-98744000D01*
X152941772Y-98711297D01*
X152786900Y-98647147D01*
X152647519Y-98554015D01*
X152528985Y-98435481D01*
X152435853Y-98296100D01*
X152371703Y-98141228D01*
X152339000Y-97976816D01*
X152339000Y-97809184D01*
X152371703Y-97644772D01*
X152435853Y-97489900D01*
X152528985Y-97350519D01*
X152647519Y-97231985D01*
X152786900Y-97138853D01*
X152941772Y-97074703D01*
X153106184Y-97042000D01*
X153273816Y-97042000D01*
X153438228Y-97074703D01*
X153438228Y-97074703D01*
G37*
G36*
X162881823Y-97054313D02*
G01*
X163042242Y-97102976D01*
X163096611Y-97132037D01*
X163190078Y-97181996D01*
X163319659Y-97288341D01*
X163426004Y-97417922D01*
X163426005Y-97417924D01*
X163505024Y-97565758D01*
X163553687Y-97726177D01*
X163570117Y-97893000D01*
X163553687Y-98059823D01*
X163505024Y-98220242D01*
X163454780Y-98314242D01*
X163426004Y-98368078D01*
X163319659Y-98497659D01*
X163190078Y-98604004D01*
X163190076Y-98604005D01*
X163042242Y-98683024D01*
X162881823Y-98731687D01*
X162756804Y-98744000D01*
X162673196Y-98744000D01*
X162548177Y-98731687D01*
X162387758Y-98683024D01*
X162239924Y-98604005D01*
X162239922Y-98604004D01*
X162110341Y-98497659D01*
X162003996Y-98368078D01*
X161975220Y-98314242D01*
X161924976Y-98220242D01*
X161876313Y-98059823D01*
X161859883Y-97893000D01*
X161876313Y-97726177D01*
X161924976Y-97565758D01*
X162003995Y-97417924D01*
X162003996Y-97417922D01*
X162110341Y-97288341D01*
X162239922Y-97181996D01*
X162333389Y-97132037D01*
X162387758Y-97102976D01*
X162548177Y-97054313D01*
X162673196Y-97042000D01*
X162756804Y-97042000D01*
X162881823Y-97054313D01*
X162881823Y-97054313D01*
G37*
G36*
X159788228Y-97074703D02*
G01*
X159943100Y-97138853D01*
X160082481Y-97231985D01*
X160201015Y-97350519D01*
X160294147Y-97489900D01*
X160358297Y-97644772D01*
X160391000Y-97809184D01*
X160391000Y-97976816D01*
X160358297Y-98141228D01*
X160294147Y-98296100D01*
X160201015Y-98435481D01*
X160082481Y-98554015D01*
X159943100Y-98647147D01*
X159788228Y-98711297D01*
X159623816Y-98744000D01*
X159456184Y-98744000D01*
X159291772Y-98711297D01*
X159136900Y-98647147D01*
X158997519Y-98554015D01*
X158878985Y-98435481D01*
X158785853Y-98296100D01*
X158721703Y-98141228D01*
X158689000Y-97976816D01*
X158689000Y-97809184D01*
X158721703Y-97644772D01*
X158785853Y-97489900D01*
X158878985Y-97350519D01*
X158997519Y-97231985D01*
X159136900Y-97138853D01*
X159291772Y-97074703D01*
X159456184Y-97042000D01*
X159623816Y-97042000D01*
X159788228Y-97074703D01*
X159788228Y-97074703D01*
G37*
G36*
X156613228Y-97074703D02*
G01*
X156768100Y-97138853D01*
X156907481Y-97231985D01*
X157026015Y-97350519D01*
X157119147Y-97489900D01*
X157183297Y-97644772D01*
X157216000Y-97809184D01*
X157216000Y-97976816D01*
X157183297Y-98141228D01*
X157119147Y-98296100D01*
X157026015Y-98435481D01*
X156907481Y-98554015D01*
X156768100Y-98647147D01*
X156613228Y-98711297D01*
X156448816Y-98744000D01*
X156281184Y-98744000D01*
X156116772Y-98711297D01*
X155961900Y-98647147D01*
X155822519Y-98554015D01*
X155703985Y-98435481D01*
X155610853Y-98296100D01*
X155546703Y-98141228D01*
X155514000Y-97976816D01*
X155514000Y-97809184D01*
X155546703Y-97644772D01*
X155610853Y-97489900D01*
X155703985Y-97350519D01*
X155822519Y-97231985D01*
X155961900Y-97138853D01*
X156116772Y-97074703D01*
X156281184Y-97042000D01*
X156448816Y-97042000D01*
X156613228Y-97074703D01*
X156613228Y-97074703D01*
G37*
G36*
X134038228Y-94739703D02*
G01*
X134193100Y-94803853D01*
X134332481Y-94896985D01*
X134451015Y-95015519D01*
X134544147Y-95154900D01*
X134608297Y-95309772D01*
X134641000Y-95474184D01*
X134641000Y-95641816D01*
X134608297Y-95806228D01*
X134544147Y-95961100D01*
X134451015Y-96100481D01*
X134332481Y-96219015D01*
X134193100Y-96312147D01*
X134038228Y-96376297D01*
X133873816Y-96409000D01*
X133706184Y-96409000D01*
X133541772Y-96376297D01*
X133386900Y-96312147D01*
X133247519Y-96219015D01*
X133128985Y-96100481D01*
X133035853Y-95961100D01*
X132971703Y-95806228D01*
X132939000Y-95641816D01*
X132939000Y-95474184D01*
X132971703Y-95309772D01*
X133035853Y-95154900D01*
X133128985Y-95015519D01*
X133247519Y-94896985D01*
X133386900Y-94803853D01*
X133541772Y-94739703D01*
X133706184Y-94707000D01*
X133873816Y-94707000D01*
X134038228Y-94739703D01*
X134038228Y-94739703D01*
G37*
G36*
X128876823Y-94719313D02*
G01*
X129037242Y-94767976D01*
X129104361Y-94803852D01*
X129185078Y-94846996D01*
X129314659Y-94953341D01*
X129421004Y-95082922D01*
X129421005Y-95082924D01*
X129500024Y-95230758D01*
X129548687Y-95391177D01*
X129565117Y-95558000D01*
X129548687Y-95724823D01*
X129500024Y-95885242D01*
X129459477Y-95961100D01*
X129421004Y-96033078D01*
X129314659Y-96162659D01*
X129185078Y-96269004D01*
X129185076Y-96269005D01*
X129037242Y-96348024D01*
X128876823Y-96396687D01*
X128751804Y-96409000D01*
X128668196Y-96409000D01*
X128543177Y-96396687D01*
X128382758Y-96348024D01*
X128234924Y-96269005D01*
X128234922Y-96269004D01*
X128105341Y-96162659D01*
X127998996Y-96033078D01*
X127960523Y-95961100D01*
X127919976Y-95885242D01*
X127871313Y-95724823D01*
X127854883Y-95558000D01*
X127871313Y-95391177D01*
X127919976Y-95230758D01*
X127998995Y-95082924D01*
X127998996Y-95082922D01*
X128105341Y-94953341D01*
X128234922Y-94846996D01*
X128315639Y-94803852D01*
X128382758Y-94767976D01*
X128543177Y-94719313D01*
X128668196Y-94707000D01*
X128751804Y-94707000D01*
X128876823Y-94719313D01*
X128876823Y-94719313D01*
G37*
G36*
X125574823Y-94719313D02*
G01*
X125735242Y-94767976D01*
X125802361Y-94803852D01*
X125883078Y-94846996D01*
X126012659Y-94953341D01*
X126119004Y-95082922D01*
X126119005Y-95082924D01*
X126198024Y-95230758D01*
X126246687Y-95391177D01*
X126263117Y-95558000D01*
X126246687Y-95724823D01*
X126198024Y-95885242D01*
X126157477Y-95961100D01*
X126119004Y-96033078D01*
X126012659Y-96162659D01*
X125883078Y-96269004D01*
X125883076Y-96269005D01*
X125735242Y-96348024D01*
X125574823Y-96396687D01*
X125449804Y-96409000D01*
X125366196Y-96409000D01*
X125241177Y-96396687D01*
X125080758Y-96348024D01*
X124932924Y-96269005D01*
X124932922Y-96269004D01*
X124803341Y-96162659D01*
X124696996Y-96033078D01*
X124658523Y-95961100D01*
X124617976Y-95885242D01*
X124569313Y-95724823D01*
X124552883Y-95558000D01*
X124569313Y-95391177D01*
X124617976Y-95230758D01*
X124696995Y-95082924D01*
X124696996Y-95082922D01*
X124803341Y-94953341D01*
X124932922Y-94846996D01*
X125013639Y-94803852D01*
X125080758Y-94767976D01*
X125241177Y-94719313D01*
X125366196Y-94707000D01*
X125449804Y-94707000D01*
X125574823Y-94719313D01*
X125574823Y-94719313D01*
G37*
G36*
X149490443Y-94585519D02*
G01*
X149556627Y-94592037D01*
X149726466Y-94643557D01*
X149882991Y-94727222D01*
X149893682Y-94735996D01*
X150020186Y-94839814D01*
X150067104Y-94896985D01*
X150132778Y-94977009D01*
X150216443Y-95133534D01*
X150267963Y-95303373D01*
X150285359Y-95480000D01*
X150267963Y-95656627D01*
X150216443Y-95826466D01*
X150132778Y-95982991D01*
X150103448Y-96018729D01*
X150020186Y-96120186D01*
X149918729Y-96203448D01*
X149882991Y-96232778D01*
X149726466Y-96316443D01*
X149556627Y-96367963D01*
X149490443Y-96374481D01*
X149424260Y-96381000D01*
X149335740Y-96381000D01*
X149269557Y-96374481D01*
X149203373Y-96367963D01*
X149033534Y-96316443D01*
X148877009Y-96232778D01*
X148841271Y-96203448D01*
X148739814Y-96120186D01*
X148656552Y-96018729D01*
X148627222Y-95982991D01*
X148543557Y-95826466D01*
X148492037Y-95656627D01*
X148474641Y-95480000D01*
X148492037Y-95303373D01*
X148543557Y-95133534D01*
X148627222Y-94977009D01*
X148692896Y-94896985D01*
X148739814Y-94839814D01*
X148866318Y-94735996D01*
X148877009Y-94727222D01*
X149033534Y-94643557D01*
X149203373Y-94592037D01*
X149269557Y-94585519D01*
X149335740Y-94579000D01*
X149424260Y-94579000D01*
X149490443Y-94585519D01*
X149490443Y-94585519D01*
G37*
G36*
X138528823Y-94608313D02*
G01*
X138689242Y-94656976D01*
X138782830Y-94707000D01*
X138837078Y-94735996D01*
X138966659Y-94842341D01*
X139073004Y-94971922D01*
X139073005Y-94971924D01*
X139152024Y-95119758D01*
X139200687Y-95280177D01*
X139217117Y-95447000D01*
X139200687Y-95613823D01*
X139152024Y-95774242D01*
X139092695Y-95885239D01*
X139073004Y-95922078D01*
X138966659Y-96051659D01*
X138837078Y-96158004D01*
X138837076Y-96158005D01*
X138689242Y-96237024D01*
X138528823Y-96285687D01*
X138403804Y-96298000D01*
X138320196Y-96298000D01*
X138195177Y-96285687D01*
X138034758Y-96237024D01*
X137886924Y-96158005D01*
X137886922Y-96158004D01*
X137757341Y-96051659D01*
X137650996Y-95922078D01*
X137631305Y-95885239D01*
X137571976Y-95774242D01*
X137523313Y-95613823D01*
X137506883Y-95447000D01*
X137523313Y-95280177D01*
X137571976Y-95119758D01*
X137650995Y-94971924D01*
X137650996Y-94971922D01*
X137757341Y-94842341D01*
X137886922Y-94735996D01*
X137941170Y-94707000D01*
X138034758Y-94656976D01*
X138195177Y-94608313D01*
X138320196Y-94596000D01*
X138403804Y-94596000D01*
X138528823Y-94608313D01*
X138528823Y-94608313D01*
G37*
G36*
X146148823Y-94608313D02*
G01*
X146309242Y-94656976D01*
X146402830Y-94707000D01*
X146457078Y-94735996D01*
X146586659Y-94842341D01*
X146693004Y-94971922D01*
X146693005Y-94971924D01*
X146772024Y-95119758D01*
X146820687Y-95280177D01*
X146837117Y-95447000D01*
X146820687Y-95613823D01*
X146772024Y-95774242D01*
X146712695Y-95885239D01*
X146693004Y-95922078D01*
X146586659Y-96051659D01*
X146457078Y-96158004D01*
X146457076Y-96158005D01*
X146309242Y-96237024D01*
X146148823Y-96285687D01*
X146023804Y-96298000D01*
X145940196Y-96298000D01*
X145815177Y-96285687D01*
X145654758Y-96237024D01*
X145506924Y-96158005D01*
X145506922Y-96158004D01*
X145377341Y-96051659D01*
X145270996Y-95922078D01*
X145251305Y-95885239D01*
X145191976Y-95774242D01*
X145143313Y-95613823D01*
X145126883Y-95447000D01*
X145143313Y-95280177D01*
X145191976Y-95119758D01*
X145270995Y-94971924D01*
X145270996Y-94971922D01*
X145377341Y-94842341D01*
X145506922Y-94735996D01*
X145561170Y-94707000D01*
X145654758Y-94656976D01*
X145815177Y-94608313D01*
X145940196Y-94596000D01*
X146023804Y-94596000D01*
X146148823Y-94608313D01*
X146148823Y-94608313D01*
G37*
G36*
X149490442Y-92045518D02*
G01*
X149556627Y-92052037D01*
X149726466Y-92103557D01*
X149882991Y-92187222D01*
X149893682Y-92195996D01*
X150020186Y-92299814D01*
X150088454Y-92383000D01*
X150132778Y-92437009D01*
X150216443Y-92593534D01*
X150267963Y-92763373D01*
X150285359Y-92940000D01*
X150267963Y-93116627D01*
X150216443Y-93286466D01*
X150132778Y-93442991D01*
X150125771Y-93451529D01*
X150020186Y-93580186D01*
X149918729Y-93663448D01*
X149882991Y-93692778D01*
X149726466Y-93776443D01*
X149556627Y-93827963D01*
X149490442Y-93834482D01*
X149424260Y-93841000D01*
X149335740Y-93841000D01*
X149269558Y-93834482D01*
X149203373Y-93827963D01*
X149033534Y-93776443D01*
X148877009Y-93692778D01*
X148841271Y-93663448D01*
X148739814Y-93580186D01*
X148634229Y-93451529D01*
X148627222Y-93442991D01*
X148543557Y-93286466D01*
X148492037Y-93116627D01*
X148474641Y-92940000D01*
X148492037Y-92763373D01*
X148543557Y-92593534D01*
X148627222Y-92437009D01*
X148671546Y-92383000D01*
X148739814Y-92299814D01*
X148866318Y-92195996D01*
X148877009Y-92187222D01*
X149033534Y-92103557D01*
X149203373Y-92052037D01*
X149269558Y-92045518D01*
X149335740Y-92039000D01*
X149424260Y-92039000D01*
X149490442Y-92045518D01*
X149490442Y-92045518D01*
G37*
G36*
X138528823Y-92068313D02*
G01*
X138689242Y-92116976D01*
X138764804Y-92157365D01*
X138837078Y-92195996D01*
X138966659Y-92302341D01*
X139073004Y-92431922D01*
X139073005Y-92431924D01*
X139152024Y-92579758D01*
X139200687Y-92740177D01*
X139217117Y-92907000D01*
X139200687Y-93073823D01*
X139152024Y-93234242D01*
X139093008Y-93344653D01*
X139073004Y-93382078D01*
X138966659Y-93511659D01*
X138837078Y-93618004D01*
X138837076Y-93618005D01*
X138689242Y-93697024D01*
X138528823Y-93745687D01*
X138403804Y-93758000D01*
X138320196Y-93758000D01*
X138195177Y-93745687D01*
X138034758Y-93697024D01*
X137886924Y-93618005D01*
X137886922Y-93618004D01*
X137757341Y-93511659D01*
X137650996Y-93382078D01*
X137630992Y-93344653D01*
X137571976Y-93234242D01*
X137523313Y-93073823D01*
X137506883Y-92907000D01*
X137523313Y-92740177D01*
X137571976Y-92579758D01*
X137650995Y-92431924D01*
X137650996Y-92431922D01*
X137757341Y-92302341D01*
X137886922Y-92195996D01*
X137959196Y-92157365D01*
X138034758Y-92116976D01*
X138195177Y-92068313D01*
X138320196Y-92056000D01*
X138403804Y-92056000D01*
X138528823Y-92068313D01*
X138528823Y-92068313D01*
G37*
G36*
X146148823Y-92068313D02*
G01*
X146309242Y-92116976D01*
X146384804Y-92157365D01*
X146457078Y-92195996D01*
X146586659Y-92302341D01*
X146693004Y-92431922D01*
X146693005Y-92431924D01*
X146772024Y-92579758D01*
X146820687Y-92740177D01*
X146837117Y-92907000D01*
X146820687Y-93073823D01*
X146772024Y-93234242D01*
X146713008Y-93344653D01*
X146693004Y-93382078D01*
X146586659Y-93511659D01*
X146457078Y-93618004D01*
X146457076Y-93618005D01*
X146309242Y-93697024D01*
X146148823Y-93745687D01*
X146023804Y-93758000D01*
X145940196Y-93758000D01*
X145815177Y-93745687D01*
X145654758Y-93697024D01*
X145506924Y-93618005D01*
X145506922Y-93618004D01*
X145377341Y-93511659D01*
X145270996Y-93382078D01*
X145250992Y-93344653D01*
X145191976Y-93234242D01*
X145143313Y-93073823D01*
X145126883Y-92907000D01*
X145143313Y-92740177D01*
X145191976Y-92579758D01*
X145270995Y-92431924D01*
X145270996Y-92431922D01*
X145377341Y-92302341D01*
X145506922Y-92195996D01*
X145579196Y-92157365D01*
X145654758Y-92116976D01*
X145815177Y-92068313D01*
X145940196Y-92056000D01*
X146023804Y-92056000D01*
X146148823Y-92068313D01*
X146148823Y-92068313D01*
G37*
G36*
X118667937Y-91243103D02*
G01*
X118724301Y-91248654D01*
X118941266Y-91314470D01*
X118941268Y-91314471D01*
X119141221Y-91421347D01*
X119316484Y-91565182D01*
X119460319Y-91740445D01*
X119567195Y-91940398D01*
X119567196Y-91940400D01*
X119633012Y-92157365D01*
X119655235Y-92383000D01*
X119633012Y-92608635D01*
X119586072Y-92763375D01*
X119567195Y-92825602D01*
X119460319Y-93025555D01*
X119316484Y-93200818D01*
X119141221Y-93344653D01*
X118941268Y-93451529D01*
X118941266Y-93451530D01*
X118724301Y-93517346D01*
X118667937Y-93522897D01*
X118555211Y-93534000D01*
X118442121Y-93534000D01*
X118329395Y-93522897D01*
X118273031Y-93517346D01*
X118056066Y-93451530D01*
X118056064Y-93451529D01*
X117856111Y-93344653D01*
X117680848Y-93200818D01*
X117537013Y-93025555D01*
X117430137Y-92825602D01*
X117411261Y-92763375D01*
X117364320Y-92608635D01*
X117342097Y-92383000D01*
X117364320Y-92157365D01*
X117430136Y-91940400D01*
X117430137Y-91940398D01*
X117537013Y-91740445D01*
X117680848Y-91565182D01*
X117856111Y-91421347D01*
X118056064Y-91314471D01*
X118056066Y-91314470D01*
X118273031Y-91248654D01*
X118329395Y-91243103D01*
X118442121Y-91232000D01*
X118555211Y-91232000D01*
X118667937Y-91243103D01*
X118667937Y-91243103D01*
G37*
G36*
X122172603Y-91243103D02*
G01*
X122228967Y-91248654D01*
X122445932Y-91314470D01*
X122445934Y-91314471D01*
X122645887Y-91421347D01*
X122821150Y-91565182D01*
X122964985Y-91740445D01*
X123071861Y-91940398D01*
X123071862Y-91940400D01*
X123137678Y-92157365D01*
X123159901Y-92383000D01*
X123137678Y-92608635D01*
X123090738Y-92763375D01*
X123071861Y-92825602D01*
X122964985Y-93025555D01*
X122821150Y-93200818D01*
X122645887Y-93344653D01*
X122445934Y-93451529D01*
X122445932Y-93451530D01*
X122228967Y-93517346D01*
X122172603Y-93522897D01*
X122059877Y-93534000D01*
X121946787Y-93534000D01*
X121834061Y-93522897D01*
X121777697Y-93517346D01*
X121560732Y-93451530D01*
X121560730Y-93451529D01*
X121360777Y-93344653D01*
X121185514Y-93200818D01*
X121041679Y-93025555D01*
X120934803Y-92825602D01*
X120915927Y-92763375D01*
X120868986Y-92608635D01*
X120846763Y-92383000D01*
X120868986Y-92157365D01*
X120934802Y-91940400D01*
X120934803Y-91940398D01*
X121041679Y-91740445D01*
X121185514Y-91565182D01*
X121360777Y-91421347D01*
X121560730Y-91314471D01*
X121560732Y-91314470D01*
X121777697Y-91248654D01*
X121834061Y-91243103D01*
X121946787Y-91232000D01*
X122059877Y-91232000D01*
X122172603Y-91243103D01*
X122172603Y-91243103D01*
G37*
G36*
X115163271Y-91243103D02*
G01*
X115219635Y-91248654D01*
X115436600Y-91314470D01*
X115436602Y-91314471D01*
X115636555Y-91421347D01*
X115811818Y-91565182D01*
X115955653Y-91740445D01*
X116062529Y-91940398D01*
X116062530Y-91940400D01*
X116128346Y-92157365D01*
X116150569Y-92383000D01*
X116128346Y-92608635D01*
X116081406Y-92763375D01*
X116062529Y-92825602D01*
X115955653Y-93025555D01*
X115811818Y-93200818D01*
X115636555Y-93344653D01*
X115436602Y-93451529D01*
X115436600Y-93451530D01*
X115219635Y-93517346D01*
X115163271Y-93522897D01*
X115050545Y-93534000D01*
X114937455Y-93534000D01*
X114824729Y-93522897D01*
X114768365Y-93517346D01*
X114551400Y-93451530D01*
X114551398Y-93451529D01*
X114351445Y-93344653D01*
X114176182Y-93200818D01*
X114032347Y-93025555D01*
X113925471Y-92825602D01*
X113906595Y-92763375D01*
X113859654Y-92608635D01*
X113837431Y-92383000D01*
X113859654Y-92157365D01*
X113925470Y-91940400D01*
X113925471Y-91940398D01*
X114032347Y-91740445D01*
X114176182Y-91565182D01*
X114351445Y-91421347D01*
X114551398Y-91314471D01*
X114551400Y-91314470D01*
X114768365Y-91248654D01*
X114824729Y-91243103D01*
X114937455Y-91232000D01*
X115050545Y-91232000D01*
X115163271Y-91243103D01*
X115163271Y-91243103D01*
G37*
G36*
X134038228Y-89739703D02*
G01*
X134193100Y-89803853D01*
X134332481Y-89896985D01*
X134451015Y-90015519D01*
X134544147Y-90154900D01*
X134608297Y-90309772D01*
X134641000Y-90474184D01*
X134641000Y-90641816D01*
X134608297Y-90806228D01*
X134544147Y-90961100D01*
X134451015Y-91100481D01*
X134332481Y-91219015D01*
X134193100Y-91312147D01*
X134038228Y-91376297D01*
X133873816Y-91409000D01*
X133706184Y-91409000D01*
X133541772Y-91376297D01*
X133386900Y-91312147D01*
X133247519Y-91219015D01*
X133128985Y-91100481D01*
X133035853Y-90961100D01*
X132971703Y-90806228D01*
X132939000Y-90641816D01*
X132939000Y-90474184D01*
X132971703Y-90309772D01*
X133035853Y-90154900D01*
X133128985Y-90015519D01*
X133247519Y-89896985D01*
X133386900Y-89803853D01*
X133541772Y-89739703D01*
X133706184Y-89707000D01*
X133873816Y-89707000D01*
X134038228Y-89739703D01*
X134038228Y-89739703D01*
G37*
G36*
X149490443Y-89505519D02*
G01*
X149556627Y-89512037D01*
X149726466Y-89563557D01*
X149882991Y-89647222D01*
X149893682Y-89655996D01*
X150020186Y-89759814D01*
X150100576Y-89857771D01*
X150132778Y-89897009D01*
X150132779Y-89897011D01*
X150199687Y-90022185D01*
X150216443Y-90053534D01*
X150267963Y-90223373D01*
X150285359Y-90400000D01*
X150267963Y-90576627D01*
X150216443Y-90746466D01*
X150132778Y-90902991D01*
X150115294Y-90924295D01*
X150020186Y-91040186D01*
X149946716Y-91100480D01*
X149882991Y-91152778D01*
X149726466Y-91236443D01*
X149556627Y-91287963D01*
X149490442Y-91294482D01*
X149424260Y-91301000D01*
X149335740Y-91301000D01*
X149269558Y-91294482D01*
X149203373Y-91287963D01*
X149033534Y-91236443D01*
X148877009Y-91152778D01*
X148813284Y-91100480D01*
X148739814Y-91040186D01*
X148644706Y-90924295D01*
X148627222Y-90902991D01*
X148543557Y-90746466D01*
X148492037Y-90576627D01*
X148474641Y-90400000D01*
X148492037Y-90223373D01*
X148543557Y-90053534D01*
X148560314Y-90022185D01*
X148627221Y-89897011D01*
X148627222Y-89897009D01*
X148659424Y-89857771D01*
X148739814Y-89759814D01*
X148866318Y-89655996D01*
X148877009Y-89647222D01*
X149033534Y-89563557D01*
X149203373Y-89512037D01*
X149269557Y-89505519D01*
X149335740Y-89499000D01*
X149424260Y-89499000D01*
X149490443Y-89505519D01*
X149490443Y-89505519D01*
G37*
G36*
X139213000Y-91218000D02*
G01*
X137511000Y-91218000D01*
X137511000Y-89516000D01*
X139213000Y-89516000D01*
X139213000Y-91218000D01*
X139213000Y-91218000D01*
G37*
G36*
X146148823Y-89528313D02*
G01*
X146309242Y-89576976D01*
X146440661Y-89647221D01*
X146457078Y-89655996D01*
X146586659Y-89762341D01*
X146693004Y-89891922D01*
X146693005Y-89891924D01*
X146772024Y-90039758D01*
X146820687Y-90200177D01*
X146837117Y-90367000D01*
X146820687Y-90533823D01*
X146772024Y-90694242D01*
X146733126Y-90767015D01*
X146693004Y-90842078D01*
X146586659Y-90971659D01*
X146457078Y-91078004D01*
X146457076Y-91078005D01*
X146309242Y-91157024D01*
X146148823Y-91205687D01*
X146023804Y-91218000D01*
X145940196Y-91218000D01*
X145815177Y-91205687D01*
X145654758Y-91157024D01*
X145506924Y-91078005D01*
X145506922Y-91078004D01*
X145377341Y-90971659D01*
X145270996Y-90842078D01*
X145230874Y-90767015D01*
X145191976Y-90694242D01*
X145143313Y-90533823D01*
X145126883Y-90367000D01*
X145143313Y-90200177D01*
X145191976Y-90039758D01*
X145270995Y-89891924D01*
X145270996Y-89891922D01*
X145377341Y-89762341D01*
X145506922Y-89655996D01*
X145523339Y-89647221D01*
X145654758Y-89576976D01*
X145815177Y-89528313D01*
X145940196Y-89516000D01*
X146023804Y-89516000D01*
X146148823Y-89528313D01*
X146148823Y-89528313D01*
G37*
G36*
X107821345Y-89307442D02*
G01*
X107911548Y-89316326D01*
X108085157Y-89368990D01*
X108245156Y-89454511D01*
X108288729Y-89490271D01*
X108385397Y-89569603D01*
X108449096Y-89647222D01*
X108500489Y-89709844D01*
X108586010Y-89869843D01*
X108638674Y-90043452D01*
X108656456Y-90224000D01*
X108638674Y-90404548D01*
X108586010Y-90578157D01*
X108500489Y-90738156D01*
X108493667Y-90746468D01*
X108385397Y-90878397D01*
X108289618Y-90957000D01*
X108245156Y-90993489D01*
X108085157Y-91079010D01*
X107911548Y-91131674D01*
X107821345Y-91140558D01*
X107776245Y-91145000D01*
X107225755Y-91145000D01*
X107180655Y-91140558D01*
X107090452Y-91131674D01*
X106916843Y-91079010D01*
X106756844Y-90993489D01*
X106712382Y-90957000D01*
X106616603Y-90878397D01*
X106508333Y-90746468D01*
X106501511Y-90738156D01*
X106415990Y-90578157D01*
X106363326Y-90404548D01*
X106345544Y-90224000D01*
X106363326Y-90043452D01*
X106415990Y-89869843D01*
X106501511Y-89709844D01*
X106552904Y-89647222D01*
X106616603Y-89569603D01*
X106713271Y-89490271D01*
X106756844Y-89454511D01*
X106916843Y-89368990D01*
X107090452Y-89316326D01*
X107180655Y-89307442D01*
X107225755Y-89303000D01*
X107776245Y-89303000D01*
X107821345Y-89307442D01*
X107821345Y-89307442D01*
G37*
G36*
X112417228Y-89287703D02*
G01*
X112572100Y-89351853D01*
X112711481Y-89444985D01*
X112830015Y-89563519D01*
X112923147Y-89702900D01*
X112987297Y-89857772D01*
X113020000Y-90022184D01*
X113020000Y-90189816D01*
X112987297Y-90354228D01*
X112923147Y-90509100D01*
X112830015Y-90648481D01*
X112711481Y-90767015D01*
X112572100Y-90860147D01*
X112417228Y-90924297D01*
X112252816Y-90957000D01*
X112085184Y-90957000D01*
X111920772Y-90924297D01*
X111765900Y-90860147D01*
X111626519Y-90767015D01*
X111507985Y-90648481D01*
X111414853Y-90509100D01*
X111350703Y-90354228D01*
X111318000Y-90189816D01*
X111318000Y-90022184D01*
X111350703Y-89857772D01*
X111414853Y-89702900D01*
X111507985Y-89563519D01*
X111626519Y-89444985D01*
X111765900Y-89351853D01*
X111920772Y-89287703D01*
X112085184Y-89255000D01*
X112252816Y-89255000D01*
X112417228Y-89287703D01*
X112417228Y-89287703D01*
G37*
G36*
X149490442Y-86965518D02*
G01*
X149556627Y-86972037D01*
X149726466Y-87023557D01*
X149882991Y-87107222D01*
X149908724Y-87128341D01*
X150020186Y-87219814D01*
X150103448Y-87321271D01*
X150132778Y-87357009D01*
X150216443Y-87513534D01*
X150267963Y-87683373D01*
X150285359Y-87860000D01*
X150267963Y-88036627D01*
X150216443Y-88206466D01*
X150132778Y-88362991D01*
X150107317Y-88394015D01*
X150020186Y-88500186D01*
X149933060Y-88571687D01*
X149882991Y-88612778D01*
X149726466Y-88696443D01*
X149556627Y-88747963D01*
X149490443Y-88754481D01*
X149424260Y-88761000D01*
X149335740Y-88761000D01*
X149269557Y-88754481D01*
X149203373Y-88747963D01*
X149033534Y-88696443D01*
X148877009Y-88612778D01*
X148826940Y-88571687D01*
X148739814Y-88500186D01*
X148652683Y-88394015D01*
X148627222Y-88362991D01*
X148543557Y-88206466D01*
X148492037Y-88036627D01*
X148474641Y-87860000D01*
X148492037Y-87683373D01*
X148543557Y-87513534D01*
X148627222Y-87357009D01*
X148656552Y-87321271D01*
X148739814Y-87219814D01*
X148851276Y-87128341D01*
X148877009Y-87107222D01*
X149033534Y-87023557D01*
X149203373Y-86972037D01*
X149269558Y-86965518D01*
X149335740Y-86959000D01*
X149424260Y-86959000D01*
X149490442Y-86965518D01*
X149490442Y-86965518D01*
G37*
G36*
X107821345Y-86767442D02*
G01*
X107911548Y-86776326D01*
X108085157Y-86828990D01*
X108245156Y-86914511D01*
X108279839Y-86942975D01*
X108385397Y-87029603D01*
X108449096Y-87107222D01*
X108500489Y-87169844D01*
X108586010Y-87329843D01*
X108638674Y-87503452D01*
X108656456Y-87684000D01*
X108638674Y-87864548D01*
X108586010Y-88038157D01*
X108500489Y-88198156D01*
X108464729Y-88241729D01*
X108385397Y-88338397D01*
X108317625Y-88394015D01*
X108245156Y-88453489D01*
X108085157Y-88539010D01*
X107911548Y-88591674D01*
X107821345Y-88600558D01*
X107776245Y-88605000D01*
X107225755Y-88605000D01*
X107180655Y-88600558D01*
X107090452Y-88591674D01*
X106916843Y-88539010D01*
X106756844Y-88453489D01*
X106684375Y-88394015D01*
X106616603Y-88338397D01*
X106537271Y-88241729D01*
X106501511Y-88198156D01*
X106415990Y-88038157D01*
X106363326Y-87864548D01*
X106345544Y-87684000D01*
X106363326Y-87503452D01*
X106415990Y-87329843D01*
X106501511Y-87169844D01*
X106552904Y-87107222D01*
X106616603Y-87029603D01*
X106722161Y-86942975D01*
X106756844Y-86914511D01*
X106916843Y-86828990D01*
X107090452Y-86776326D01*
X107180655Y-86767442D01*
X107225755Y-86763000D01*
X107776245Y-86763000D01*
X107821345Y-86767442D01*
X107821345Y-86767442D01*
G37*
G36*
X153356823Y-86894313D02*
G01*
X153517242Y-86942976D01*
X153571611Y-86972037D01*
X153665078Y-87021996D01*
X153794659Y-87128341D01*
X153901004Y-87257922D01*
X153901005Y-87257924D01*
X153980024Y-87405758D01*
X154028687Y-87566177D01*
X154045117Y-87733000D01*
X154028687Y-87899823D01*
X153980024Y-88060242D01*
X153939477Y-88136100D01*
X153901004Y-88208078D01*
X153794659Y-88337659D01*
X153665078Y-88444004D01*
X153665076Y-88444005D01*
X153517242Y-88523024D01*
X153356823Y-88571687D01*
X153231804Y-88584000D01*
X153148196Y-88584000D01*
X153023177Y-88571687D01*
X152862758Y-88523024D01*
X152714924Y-88444005D01*
X152714922Y-88444004D01*
X152585341Y-88337659D01*
X152478996Y-88208078D01*
X152440523Y-88136100D01*
X152399976Y-88060242D01*
X152351313Y-87899823D01*
X152334883Y-87733000D01*
X152351313Y-87566177D01*
X152399976Y-87405758D01*
X152478995Y-87257924D01*
X152478996Y-87257922D01*
X152585341Y-87128341D01*
X152714922Y-87021996D01*
X152808389Y-86972037D01*
X152862758Y-86942976D01*
X153023177Y-86894313D01*
X153148196Y-86882000D01*
X153231804Y-86882000D01*
X153356823Y-86894313D01*
X153356823Y-86894313D01*
G37*
G36*
X159706823Y-86894313D02*
G01*
X159867242Y-86942976D01*
X159921611Y-86972037D01*
X160015078Y-87021996D01*
X160144659Y-87128341D01*
X160251004Y-87257922D01*
X160251005Y-87257924D01*
X160330024Y-87405758D01*
X160378687Y-87566177D01*
X160395117Y-87733000D01*
X160378687Y-87899823D01*
X160330024Y-88060242D01*
X160289477Y-88136100D01*
X160251004Y-88208078D01*
X160144659Y-88337659D01*
X160015078Y-88444004D01*
X160015076Y-88444005D01*
X159867242Y-88523024D01*
X159706823Y-88571687D01*
X159581804Y-88584000D01*
X159498196Y-88584000D01*
X159373177Y-88571687D01*
X159212758Y-88523024D01*
X159064924Y-88444005D01*
X159064922Y-88444004D01*
X158935341Y-88337659D01*
X158828996Y-88208078D01*
X158790523Y-88136100D01*
X158749976Y-88060242D01*
X158701313Y-87899823D01*
X158684883Y-87733000D01*
X158701313Y-87566177D01*
X158749976Y-87405758D01*
X158828995Y-87257924D01*
X158828996Y-87257922D01*
X158935341Y-87128341D01*
X159064922Y-87021996D01*
X159158389Y-86972037D01*
X159212758Y-86942976D01*
X159373177Y-86894313D01*
X159498196Y-86882000D01*
X159581804Y-86882000D01*
X159706823Y-86894313D01*
X159706823Y-86894313D01*
G37*
G36*
X156531823Y-86894313D02*
G01*
X156692242Y-86942976D01*
X156746611Y-86972037D01*
X156840078Y-87021996D01*
X156969659Y-87128341D01*
X157076004Y-87257922D01*
X157076005Y-87257924D01*
X157155024Y-87405758D01*
X157203687Y-87566177D01*
X157220117Y-87733000D01*
X157203687Y-87899823D01*
X157155024Y-88060242D01*
X157114477Y-88136100D01*
X157076004Y-88208078D01*
X156969659Y-88337659D01*
X156840078Y-88444004D01*
X156840076Y-88444005D01*
X156692242Y-88523024D01*
X156531823Y-88571687D01*
X156406804Y-88584000D01*
X156323196Y-88584000D01*
X156198177Y-88571687D01*
X156037758Y-88523024D01*
X155889924Y-88444005D01*
X155889922Y-88444004D01*
X155760341Y-88337659D01*
X155653996Y-88208078D01*
X155615523Y-88136100D01*
X155574976Y-88060242D01*
X155526313Y-87899823D01*
X155509883Y-87733000D01*
X155526313Y-87566177D01*
X155574976Y-87405758D01*
X155653995Y-87257924D01*
X155653996Y-87257922D01*
X155760341Y-87128341D01*
X155889922Y-87021996D01*
X155983389Y-86972037D01*
X156037758Y-86942976D01*
X156198177Y-86894313D01*
X156323196Y-86882000D01*
X156406804Y-86882000D01*
X156531823Y-86894313D01*
X156531823Y-86894313D01*
G37*
G36*
X162963228Y-86914703D02*
G01*
X163118100Y-86978853D01*
X163257481Y-87071985D01*
X163376015Y-87190519D01*
X163469147Y-87329900D01*
X163533297Y-87484772D01*
X163566000Y-87649184D01*
X163566000Y-87816816D01*
X163533297Y-87981228D01*
X163469147Y-88136100D01*
X163376015Y-88275481D01*
X163257481Y-88394015D01*
X163118100Y-88487147D01*
X162963228Y-88551297D01*
X162798816Y-88584000D01*
X162631184Y-88584000D01*
X162466772Y-88551297D01*
X162311900Y-88487147D01*
X162172519Y-88394015D01*
X162053985Y-88275481D01*
X161960853Y-88136100D01*
X161896703Y-87981228D01*
X161864000Y-87816816D01*
X161864000Y-87649184D01*
X161896703Y-87484772D01*
X161960853Y-87329900D01*
X162053985Y-87190519D01*
X162172519Y-87071985D01*
X162311900Y-86978853D01*
X162466772Y-86914703D01*
X162631184Y-86882000D01*
X162798816Y-86882000D01*
X162963228Y-86914703D01*
X162963228Y-86914703D01*
G37*
G36*
X112417228Y-86787703D02*
G01*
X112572100Y-86851853D01*
X112711481Y-86944985D01*
X112830015Y-87063519D01*
X112923147Y-87202900D01*
X112987297Y-87357772D01*
X113020000Y-87522184D01*
X113020000Y-87689816D01*
X112987297Y-87854228D01*
X112923147Y-88009100D01*
X112830015Y-88148481D01*
X112711481Y-88267015D01*
X112572100Y-88360147D01*
X112417228Y-88424297D01*
X112252816Y-88457000D01*
X112085184Y-88457000D01*
X111920772Y-88424297D01*
X111765900Y-88360147D01*
X111626519Y-88267015D01*
X111507985Y-88148481D01*
X111414853Y-88009100D01*
X111350703Y-87854228D01*
X111318000Y-87689816D01*
X111318000Y-87522184D01*
X111350703Y-87357772D01*
X111414853Y-87202900D01*
X111507985Y-87063519D01*
X111626519Y-86944985D01*
X111765900Y-86851853D01*
X111920772Y-86787703D01*
X112085184Y-86755000D01*
X112252816Y-86755000D01*
X112417228Y-86787703D01*
X112417228Y-86787703D01*
G37*
G36*
X141160228Y-86660703D02*
G01*
X141315100Y-86724853D01*
X141454481Y-86817985D01*
X141573015Y-86936519D01*
X141666147Y-87075900D01*
X141730297Y-87230772D01*
X141763000Y-87395184D01*
X141763000Y-87562816D01*
X141730297Y-87727228D01*
X141666147Y-87882100D01*
X141573015Y-88021481D01*
X141454481Y-88140015D01*
X141315100Y-88233147D01*
X141160228Y-88297297D01*
X140995816Y-88330000D01*
X140828184Y-88330000D01*
X140663772Y-88297297D01*
X140508900Y-88233147D01*
X140369519Y-88140015D01*
X140250985Y-88021481D01*
X140157853Y-87882100D01*
X140093703Y-87727228D01*
X140061000Y-87562816D01*
X140061000Y-87395184D01*
X140093703Y-87230772D01*
X140157853Y-87075900D01*
X140250985Y-86936519D01*
X140369519Y-86817985D01*
X140508900Y-86724853D01*
X140663772Y-86660703D01*
X140828184Y-86628000D01*
X140995816Y-86628000D01*
X141160228Y-86660703D01*
X141160228Y-86660703D01*
G37*
G36*
X143660228Y-86660703D02*
G01*
X143815100Y-86724853D01*
X143954481Y-86817985D01*
X144073015Y-86936519D01*
X144166147Y-87075900D01*
X144230297Y-87230772D01*
X144263000Y-87395184D01*
X144263000Y-87562816D01*
X144230297Y-87727228D01*
X144166147Y-87882100D01*
X144073015Y-88021481D01*
X143954481Y-88140015D01*
X143815100Y-88233147D01*
X143660228Y-88297297D01*
X143495816Y-88330000D01*
X143328184Y-88330000D01*
X143163772Y-88297297D01*
X143008900Y-88233147D01*
X142869519Y-88140015D01*
X142750985Y-88021481D01*
X142657853Y-87882100D01*
X142593703Y-87727228D01*
X142561000Y-87562816D01*
X142561000Y-87395184D01*
X142593703Y-87230772D01*
X142657853Y-87075900D01*
X142750985Y-86936519D01*
X142869519Y-86817985D01*
X143008900Y-86724853D01*
X143163772Y-86660703D01*
X143328184Y-86628000D01*
X143495816Y-86628000D01*
X143660228Y-86660703D01*
X143660228Y-86660703D01*
G37*
G36*
X128958228Y-84579703D02*
G01*
X129113100Y-84643853D01*
X129252481Y-84736985D01*
X129371015Y-84855519D01*
X129464147Y-84994900D01*
X129528297Y-85149772D01*
X129561000Y-85314184D01*
X129561000Y-85481816D01*
X129528297Y-85646228D01*
X129464147Y-85801100D01*
X129371015Y-85940481D01*
X129252481Y-86059015D01*
X129113100Y-86152147D01*
X128958228Y-86216297D01*
X128793816Y-86249000D01*
X128626184Y-86249000D01*
X128461772Y-86216297D01*
X128306900Y-86152147D01*
X128167519Y-86059015D01*
X128048985Y-85940481D01*
X127955853Y-85801100D01*
X127891703Y-85646228D01*
X127859000Y-85481816D01*
X127859000Y-85314184D01*
X127891703Y-85149772D01*
X127955853Y-84994900D01*
X128048985Y-84855519D01*
X128167519Y-84736985D01*
X128306900Y-84643853D01*
X128461772Y-84579703D01*
X128626184Y-84547000D01*
X128793816Y-84547000D01*
X128958228Y-84579703D01*
X128958228Y-84579703D01*
G37*
G36*
X125656228Y-84579703D02*
G01*
X125811100Y-84643853D01*
X125950481Y-84736985D01*
X126069015Y-84855519D01*
X126162147Y-84994900D01*
X126226297Y-85149772D01*
X126259000Y-85314184D01*
X126259000Y-85481816D01*
X126226297Y-85646228D01*
X126162147Y-85801100D01*
X126069015Y-85940481D01*
X125950481Y-86059015D01*
X125811100Y-86152147D01*
X125656228Y-86216297D01*
X125491816Y-86249000D01*
X125324184Y-86249000D01*
X125159772Y-86216297D01*
X125004900Y-86152147D01*
X124865519Y-86059015D01*
X124746985Y-85940481D01*
X124653853Y-85801100D01*
X124589703Y-85646228D01*
X124557000Y-85481816D01*
X124557000Y-85314184D01*
X124589703Y-85149772D01*
X124653853Y-84994900D01*
X124746985Y-84855519D01*
X124865519Y-84736985D01*
X125004900Y-84643853D01*
X125159772Y-84579703D01*
X125324184Y-84547000D01*
X125491816Y-84547000D01*
X125656228Y-84579703D01*
X125656228Y-84579703D01*
G37*
G36*
X150281000Y-86221000D02*
G01*
X148479000Y-86221000D01*
X148479000Y-84419000D01*
X150281000Y-84419000D01*
X150281000Y-86221000D01*
X150281000Y-86221000D01*
G37*
G36*
X107821345Y-84227442D02*
G01*
X107911548Y-84236326D01*
X108085157Y-84288990D01*
X108245156Y-84374511D01*
X108288729Y-84410271D01*
X108385397Y-84489603D01*
X108459339Y-84579703D01*
X108500489Y-84629844D01*
X108586010Y-84789843D01*
X108638674Y-84963452D01*
X108656456Y-85144000D01*
X108638674Y-85324548D01*
X108586010Y-85498157D01*
X108500489Y-85658156D01*
X108484780Y-85677297D01*
X108385397Y-85798397D01*
X108288729Y-85877729D01*
X108245156Y-85913489D01*
X108085157Y-85999010D01*
X107911548Y-86051674D01*
X107837012Y-86059015D01*
X107776245Y-86065000D01*
X107225755Y-86065000D01*
X107164988Y-86059015D01*
X107090452Y-86051674D01*
X106916843Y-85999010D01*
X106756844Y-85913489D01*
X106713271Y-85877729D01*
X106616603Y-85798397D01*
X106517220Y-85677297D01*
X106501511Y-85658156D01*
X106415990Y-85498157D01*
X106363326Y-85324548D01*
X106345544Y-85144000D01*
X106363326Y-84963452D01*
X106415990Y-84789843D01*
X106501511Y-84629844D01*
X106542661Y-84579703D01*
X106616603Y-84489603D01*
X106713271Y-84410271D01*
X106756844Y-84374511D01*
X106916843Y-84288990D01*
X107090452Y-84236326D01*
X107180655Y-84227442D01*
X107225755Y-84223000D01*
X107776245Y-84223000D01*
X107821345Y-84227442D01*
X107821345Y-84227442D01*
G37*
G36*
X134642228Y-84040703D02*
G01*
X134797100Y-84104853D01*
X134936481Y-84197985D01*
X135055015Y-84316519D01*
X135148147Y-84455900D01*
X135212297Y-84610772D01*
X135245000Y-84775184D01*
X135245000Y-84942816D01*
X135212297Y-85107228D01*
X135148147Y-85262100D01*
X135055015Y-85401481D01*
X134936481Y-85520015D01*
X134797100Y-85613147D01*
X134642228Y-85677297D01*
X134477816Y-85710000D01*
X134310184Y-85710000D01*
X134145772Y-85677297D01*
X133990900Y-85613147D01*
X133851519Y-85520015D01*
X133732985Y-85401481D01*
X133639853Y-85262100D01*
X133575703Y-85107228D01*
X133543000Y-84942816D01*
X133543000Y-84775184D01*
X133575703Y-84610772D01*
X133639853Y-84455900D01*
X133732985Y-84316519D01*
X133851519Y-84197985D01*
X133990900Y-84104853D01*
X134145772Y-84040703D01*
X134310184Y-84008000D01*
X134477816Y-84008000D01*
X134642228Y-84040703D01*
X134642228Y-84040703D01*
G37*
G36*
X107811629Y-81686485D02*
G01*
X107911548Y-81696326D01*
X108085157Y-81748990D01*
X108245156Y-81834511D01*
X108288729Y-81870271D01*
X108385397Y-81949603D01*
X108464729Y-82046271D01*
X108500489Y-82089844D01*
X108586010Y-82249843D01*
X108638674Y-82423452D01*
X108656456Y-82604000D01*
X108638674Y-82784548D01*
X108586010Y-82958157D01*
X108500489Y-83118156D01*
X108464729Y-83161729D01*
X108385397Y-83258397D01*
X108288729Y-83337729D01*
X108245156Y-83373489D01*
X108085157Y-83459010D01*
X107911548Y-83511674D01*
X107821345Y-83520558D01*
X107776245Y-83525000D01*
X107225755Y-83525000D01*
X107180655Y-83520558D01*
X107090452Y-83511674D01*
X106916843Y-83459010D01*
X106756844Y-83373489D01*
X106713271Y-83337729D01*
X106616603Y-83258397D01*
X106537271Y-83161729D01*
X106501511Y-83118156D01*
X106415990Y-82958157D01*
X106363326Y-82784548D01*
X106345544Y-82604000D01*
X106363326Y-82423452D01*
X106415990Y-82249843D01*
X106501511Y-82089844D01*
X106537271Y-82046271D01*
X106616603Y-81949603D01*
X106713271Y-81870271D01*
X106756844Y-81834511D01*
X106916843Y-81748990D01*
X107090452Y-81696326D01*
X107190371Y-81686485D01*
X107225755Y-81683000D01*
X107776245Y-81683000D01*
X107811629Y-81686485D01*
X107811629Y-81686485D01*
G37*
G36*
X123154332Y-83374000D02*
G01*
X120852332Y-83374000D01*
X120852332Y-81072000D01*
X123154332Y-81072000D01*
X123154332Y-83374000D01*
X123154332Y-83374000D01*
G37*
G36*
X119649666Y-83374000D02*
G01*
X117347666Y-83374000D01*
X117347666Y-81072000D01*
X119649666Y-81072000D01*
X119649666Y-83374000D01*
X119649666Y-83374000D01*
G37*
G36*
X116145000Y-83374000D02*
G01*
X113843000Y-83374000D01*
X113843000Y-81072000D01*
X116145000Y-81072000D01*
X116145000Y-83374000D01*
X116145000Y-83374000D01*
G37*
G36*
X128635916Y-79164334D02*
G01*
X128744492Y-79197271D01*
X128744495Y-79197272D01*
X128766419Y-79208991D01*
X128844557Y-79250756D01*
X128932264Y-79322736D01*
X129004244Y-79410443D01*
X129038429Y-79474399D01*
X129057728Y-79510505D01*
X129057729Y-79510508D01*
X129090666Y-79619084D01*
X129101787Y-79732000D01*
X129090666Y-79844916D01*
X129057729Y-79953492D01*
X129057728Y-79953495D01*
X129038429Y-79989601D01*
X129004244Y-80053557D01*
X128932264Y-80141264D01*
X128844557Y-80213244D01*
X128785990Y-80244548D01*
X128763141Y-80256761D01*
X128742766Y-80270375D01*
X128725439Y-80287702D01*
X128711826Y-80308076D01*
X128702448Y-80330715D01*
X128697668Y-80354748D01*
X128697668Y-80379252D01*
X128702448Y-80403285D01*
X128711826Y-80425924D01*
X128725440Y-80446299D01*
X128742767Y-80463626D01*
X128763141Y-80477239D01*
X128844557Y-80520756D01*
X128932264Y-80592736D01*
X129004244Y-80680443D01*
X129038429Y-80744399D01*
X129057728Y-80780505D01*
X129057729Y-80780508D01*
X129090666Y-80889084D01*
X129101787Y-81002000D01*
X129090666Y-81114916D01*
X129057729Y-81223492D01*
X129057728Y-81223495D01*
X129040353Y-81256000D01*
X129004244Y-81323557D01*
X128932264Y-81411264D01*
X128855354Y-81474383D01*
X128838035Y-81491702D01*
X128824421Y-81512077D01*
X128815043Y-81534716D01*
X128810263Y-81558749D01*
X128810263Y-81583253D01*
X128815043Y-81607286D01*
X128824421Y-81629925D01*
X128838034Y-81650299D01*
X128855361Y-81667626D01*
X128875736Y-81681240D01*
X128898375Y-81690618D01*
X128922408Y-81695398D01*
X128934660Y-81696000D01*
X129099000Y-81696000D01*
X129099000Y-82848000D01*
X127497000Y-82848000D01*
X127497000Y-81696000D01*
X127661340Y-81696000D01*
X127685726Y-81693598D01*
X127709175Y-81686485D01*
X127730786Y-81674934D01*
X127749728Y-81659389D01*
X127765273Y-81640447D01*
X127776824Y-81618836D01*
X127783937Y-81595387D01*
X127786339Y-81571001D01*
X127783937Y-81546615D01*
X127776824Y-81523166D01*
X127765273Y-81501555D01*
X127749728Y-81482613D01*
X127740655Y-81474391D01*
X127663736Y-81411264D01*
X127591756Y-81323557D01*
X127555647Y-81256000D01*
X127538272Y-81223495D01*
X127538271Y-81223492D01*
X127505334Y-81114916D01*
X127494213Y-81002000D01*
X127505334Y-80889084D01*
X127538271Y-80780508D01*
X127538272Y-80780505D01*
X127557571Y-80744399D01*
X127591756Y-80680443D01*
X127663736Y-80592736D01*
X127751443Y-80520756D01*
X127832859Y-80477239D01*
X127853234Y-80463625D01*
X127870561Y-80446298D01*
X127884174Y-80425924D01*
X127893552Y-80403285D01*
X127898332Y-80379252D01*
X127898332Y-80354748D01*
X127893552Y-80330715D01*
X127884174Y-80308076D01*
X127870560Y-80287701D01*
X127853233Y-80270374D01*
X127832859Y-80256761D01*
X127810010Y-80244548D01*
X127751443Y-80213244D01*
X127663736Y-80141264D01*
X127591756Y-80053557D01*
X127557571Y-79989601D01*
X127538272Y-79953495D01*
X127538271Y-79953492D01*
X127505334Y-79844916D01*
X127494213Y-79732000D01*
X127505334Y-79619084D01*
X127538271Y-79510508D01*
X127538272Y-79510505D01*
X127557571Y-79474399D01*
X127591756Y-79410443D01*
X127663736Y-79322736D01*
X127751443Y-79250756D01*
X127829581Y-79208991D01*
X127851505Y-79197272D01*
X127851508Y-79197271D01*
X127960084Y-79164334D01*
X128044702Y-79156000D01*
X128551298Y-79156000D01*
X128635916Y-79164334D01*
X128635916Y-79164334D01*
G37*
G36*
X153457057Y-80256761D02*
G01*
X153561220Y-80267020D01*
X153750381Y-80324401D01*
X153924712Y-80417583D01*
X154077515Y-80542985D01*
X154202917Y-80695788D01*
X154296099Y-80870119D01*
X154353480Y-81059280D01*
X154372855Y-81256000D01*
X154353480Y-81452720D01*
X154296534Y-81640447D01*
X154296098Y-81641883D01*
X154286741Y-81659389D01*
X154202917Y-81816212D01*
X154077515Y-81969015D01*
X153924712Y-82094417D01*
X153750381Y-82187599D01*
X153561220Y-82244980D01*
X153462936Y-82254660D01*
X153413795Y-82259500D01*
X153220205Y-82259500D01*
X153171064Y-82254660D01*
X153072780Y-82244980D01*
X152883619Y-82187599D01*
X152709288Y-82094417D01*
X152556485Y-81969015D01*
X152431083Y-81816212D01*
X152347259Y-81659389D01*
X152337902Y-81641883D01*
X152337466Y-81640447D01*
X152280520Y-81452720D01*
X152261145Y-81256000D01*
X152280520Y-81059280D01*
X152337901Y-80870119D01*
X152431083Y-80695788D01*
X152556485Y-80542985D01*
X152709288Y-80417583D01*
X152883619Y-80324401D01*
X153072780Y-80267020D01*
X153176943Y-80256761D01*
X153220205Y-80252500D01*
X153413795Y-80252500D01*
X153457057Y-80256761D01*
X153457057Y-80256761D01*
G37*
G36*
X107821345Y-79147442D02*
G01*
X107911548Y-79156326D01*
X108085157Y-79208990D01*
X108245156Y-79294511D01*
X108279548Y-79322736D01*
X108385397Y-79409603D01*
X108464729Y-79506271D01*
X108500489Y-79549844D01*
X108586010Y-79709843D01*
X108638674Y-79883452D01*
X108656456Y-80064000D01*
X108638674Y-80244548D01*
X108590521Y-80403285D01*
X108586009Y-80418159D01*
X108581818Y-80426000D01*
X108500489Y-80578156D01*
X108488523Y-80592736D01*
X108385397Y-80718397D01*
X108309717Y-80780505D01*
X108245156Y-80833489D01*
X108085157Y-80919010D01*
X107911548Y-80971674D01*
X107821345Y-80980558D01*
X107776245Y-80985000D01*
X107225755Y-80985000D01*
X107180655Y-80980558D01*
X107090452Y-80971674D01*
X106916843Y-80919010D01*
X106756844Y-80833489D01*
X106692283Y-80780505D01*
X106616603Y-80718397D01*
X106513477Y-80592736D01*
X106501511Y-80578156D01*
X106420182Y-80426000D01*
X106415991Y-80418159D01*
X106411479Y-80403285D01*
X106363326Y-80244548D01*
X106345544Y-80064000D01*
X106363326Y-79883452D01*
X106415990Y-79709843D01*
X106501511Y-79549844D01*
X106537271Y-79506271D01*
X106616603Y-79409603D01*
X106722452Y-79322736D01*
X106756844Y-79294511D01*
X106916843Y-79208990D01*
X107090452Y-79156326D01*
X107180655Y-79147442D01*
X107225755Y-79143000D01*
X107776245Y-79143000D01*
X107821345Y-79147442D01*
X107821345Y-79147442D01*
G37*
G36*
X135245000Y-80710000D02*
G01*
X133543000Y-80710000D01*
X133543000Y-79008000D01*
X135245000Y-79008000D01*
X135245000Y-80710000D01*
X135245000Y-80710000D01*
G37*
G36*
X170128821Y-76921239D02*
G01*
X170330058Y-76941059D01*
X170669548Y-77044042D01*
X170669550Y-77044043D01*
X170982422Y-77211277D01*
X171256661Y-77436339D01*
X171481723Y-77710578D01*
X171607321Y-77945555D01*
X171648958Y-78023452D01*
X171751941Y-78362942D01*
X171786714Y-78716000D01*
X171751941Y-79069058D01*
X171648958Y-79408548D01*
X171648957Y-79408550D01*
X171481723Y-79721422D01*
X171256661Y-79995661D01*
X170982422Y-80220723D01*
X170685836Y-80379252D01*
X170669548Y-80387958D01*
X170330058Y-80490941D01*
X170153669Y-80508314D01*
X170065476Y-80517000D01*
X169888524Y-80517000D01*
X169800331Y-80508314D01*
X169623942Y-80490941D01*
X169284452Y-80387958D01*
X169268164Y-80379252D01*
X168971578Y-80220723D01*
X168697339Y-79995661D01*
X168472277Y-79721422D01*
X168305043Y-79408550D01*
X168305042Y-79408548D01*
X168202059Y-79069058D01*
X168167286Y-78716000D01*
X168202059Y-78362942D01*
X168305042Y-78023452D01*
X168346679Y-77945555D01*
X168472277Y-77710578D01*
X168697339Y-77436339D01*
X168971578Y-77211277D01*
X169284450Y-77044043D01*
X169284452Y-77044042D01*
X169623942Y-76941059D01*
X169825179Y-76921239D01*
X169888524Y-76915000D01*
X170065476Y-76915000D01*
X170128821Y-76921239D01*
X170128821Y-76921239D01*
G37*
G36*
X153462936Y-77717340D02*
G01*
X153561220Y-77727020D01*
X153750381Y-77784401D01*
X153924712Y-77877583D01*
X154077515Y-78002985D01*
X154202917Y-78155788D01*
X154296099Y-78330119D01*
X154353480Y-78519280D01*
X154372855Y-78716000D01*
X154353480Y-78912720D01*
X154296099Y-79101881D01*
X154202917Y-79276212D01*
X154077515Y-79429015D01*
X153924712Y-79554417D01*
X153750381Y-79647599D01*
X153561220Y-79704980D01*
X153462936Y-79714660D01*
X153413795Y-79719500D01*
X153220205Y-79719500D01*
X153171064Y-79714660D01*
X153072780Y-79704980D01*
X152883619Y-79647599D01*
X152709288Y-79554417D01*
X152556485Y-79429015D01*
X152431083Y-79276212D01*
X152337901Y-79101881D01*
X152280520Y-78912720D01*
X152261145Y-78716000D01*
X152280520Y-78519280D01*
X152337901Y-78330119D01*
X152431083Y-78155788D01*
X152556485Y-78002985D01*
X152709288Y-77877583D01*
X152883619Y-77784401D01*
X153072780Y-77727020D01*
X153171064Y-77717340D01*
X153220205Y-77712500D01*
X153413795Y-77712500D01*
X153462936Y-77717340D01*
X153462936Y-77717340D01*
G37*
G36*
X123654916Y-75608334D02*
G01*
X123763492Y-75641271D01*
X123763495Y-75641272D01*
X123799601Y-75660571D01*
X123863557Y-75694756D01*
X123951264Y-75766736D01*
X124023244Y-75854443D01*
X124043144Y-75891674D01*
X124076728Y-75954505D01*
X124076729Y-75954508D01*
X124109666Y-76063084D01*
X124120787Y-76176000D01*
X124109666Y-76288916D01*
X124076729Y-76397492D01*
X124076728Y-76397495D01*
X124057429Y-76433601D01*
X124023244Y-76497557D01*
X123951264Y-76585264D01*
X123863557Y-76657244D01*
X123782141Y-76700761D01*
X123761766Y-76714375D01*
X123744439Y-76731702D01*
X123730826Y-76752076D01*
X123721448Y-76774715D01*
X123716668Y-76798748D01*
X123716668Y-76823252D01*
X123721448Y-76847285D01*
X123730826Y-76869924D01*
X123744440Y-76890299D01*
X123761767Y-76907626D01*
X123782141Y-76921239D01*
X123863557Y-76964756D01*
X123951264Y-77036736D01*
X124023244Y-77124443D01*
X124047509Y-77169841D01*
X124076728Y-77224505D01*
X124076729Y-77224508D01*
X124109666Y-77333084D01*
X124120787Y-77446000D01*
X124109666Y-77558916D01*
X124076729Y-77667492D01*
X124076728Y-77667495D01*
X124057429Y-77703601D01*
X124023244Y-77767557D01*
X123951264Y-77855264D01*
X123874354Y-77918383D01*
X123857035Y-77935702D01*
X123843421Y-77956077D01*
X123834043Y-77978716D01*
X123829263Y-78002749D01*
X123829263Y-78027253D01*
X123834043Y-78051286D01*
X123843421Y-78073925D01*
X123857034Y-78094299D01*
X123874361Y-78111626D01*
X123894736Y-78125240D01*
X123917375Y-78134618D01*
X123941408Y-78139398D01*
X123953660Y-78140000D01*
X124118000Y-78140000D01*
X124118000Y-79292000D01*
X122516000Y-79292000D01*
X122516000Y-78140000D01*
X122680340Y-78140000D01*
X122704726Y-78137598D01*
X122728175Y-78130485D01*
X122749786Y-78118934D01*
X122768728Y-78103389D01*
X122784273Y-78084447D01*
X122795824Y-78062836D01*
X122802937Y-78039387D01*
X122805339Y-78015001D01*
X122802937Y-77990615D01*
X122795824Y-77967166D01*
X122784273Y-77945555D01*
X122768728Y-77926613D01*
X122759655Y-77918391D01*
X122682736Y-77855264D01*
X122610756Y-77767557D01*
X122576571Y-77703601D01*
X122557272Y-77667495D01*
X122557271Y-77667492D01*
X122524334Y-77558916D01*
X122513213Y-77446000D01*
X122524334Y-77333084D01*
X122557271Y-77224508D01*
X122557272Y-77224505D01*
X122586491Y-77169841D01*
X122610756Y-77124443D01*
X122682736Y-77036736D01*
X122770443Y-76964756D01*
X122851859Y-76921239D01*
X122872234Y-76907625D01*
X122889561Y-76890298D01*
X122903174Y-76869924D01*
X122912552Y-76847285D01*
X122917332Y-76823252D01*
X122917332Y-76798748D01*
X122912552Y-76774715D01*
X122903174Y-76752076D01*
X122889560Y-76731701D01*
X122872233Y-76714374D01*
X122851859Y-76700761D01*
X122770443Y-76657244D01*
X122682736Y-76585264D01*
X122610756Y-76497557D01*
X122576571Y-76433601D01*
X122557272Y-76397495D01*
X122557271Y-76397492D01*
X122524334Y-76288916D01*
X122513213Y-76176000D01*
X122524334Y-76063084D01*
X122557271Y-75954508D01*
X122557272Y-75954505D01*
X122590856Y-75891674D01*
X122610756Y-75854443D01*
X122682736Y-75766736D01*
X122770443Y-75694756D01*
X122834399Y-75660571D01*
X122870505Y-75641272D01*
X122870508Y-75641271D01*
X122979084Y-75608334D01*
X123063702Y-75600000D01*
X123570298Y-75600000D01*
X123654916Y-75608334D01*
X123654916Y-75608334D01*
G37*
G36*
X107821345Y-76607442D02*
G01*
X107911548Y-76616326D01*
X108085157Y-76668990D01*
X108245156Y-76754511D01*
X108269774Y-76774715D01*
X108385397Y-76869603D01*
X108463486Y-76964756D01*
X108500489Y-77009844D01*
X108586010Y-77169843D01*
X108638674Y-77343452D01*
X108656456Y-77524000D01*
X108638674Y-77704548D01*
X108586010Y-77878157D01*
X108500489Y-78038156D01*
X108489713Y-78051286D01*
X108385397Y-78178397D01*
X108288729Y-78257729D01*
X108245156Y-78293489D01*
X108085157Y-78379010D01*
X107911548Y-78431674D01*
X107821345Y-78440558D01*
X107776245Y-78445000D01*
X107225755Y-78445000D01*
X107180655Y-78440558D01*
X107090452Y-78431674D01*
X106916843Y-78379010D01*
X106756844Y-78293489D01*
X106713271Y-78257729D01*
X106616603Y-78178397D01*
X106512287Y-78051286D01*
X106501511Y-78038156D01*
X106415990Y-77878157D01*
X106363326Y-77704548D01*
X106345544Y-77524000D01*
X106363326Y-77343452D01*
X106415990Y-77169843D01*
X106501511Y-77009844D01*
X106538514Y-76964756D01*
X106616603Y-76869603D01*
X106732226Y-76774715D01*
X106756844Y-76754511D01*
X106916843Y-76668990D01*
X107090452Y-76616326D01*
X107180655Y-76607442D01*
X107225755Y-76603000D01*
X107776245Y-76603000D01*
X107821345Y-76607442D01*
X107821345Y-76607442D01*
G37*
G36*
X154368000Y-77179500D02*
G01*
X152266000Y-77179500D01*
X152266000Y-75172500D01*
X154368000Y-75172500D01*
X154368000Y-77179500D01*
X154368000Y-77179500D01*
G37*
G36*
X107821345Y-74067442D02*
G01*
X107911548Y-74076326D01*
X108085157Y-74128990D01*
X108245156Y-74214511D01*
X108288729Y-74250271D01*
X108385397Y-74329603D01*
X108464729Y-74426271D01*
X108500489Y-74469844D01*
X108586010Y-74629843D01*
X108638674Y-74803452D01*
X108656456Y-74984000D01*
X108638674Y-75164548D01*
X108586010Y-75338157D01*
X108500489Y-75498156D01*
X108464729Y-75541729D01*
X108385397Y-75638397D01*
X108316722Y-75694756D01*
X108245156Y-75753489D01*
X108085157Y-75839010D01*
X107911548Y-75891674D01*
X107821345Y-75900558D01*
X107776245Y-75905000D01*
X107225755Y-75905000D01*
X107180655Y-75900558D01*
X107090452Y-75891674D01*
X106916843Y-75839010D01*
X106756844Y-75753489D01*
X106685278Y-75694756D01*
X106616603Y-75638397D01*
X106537271Y-75541729D01*
X106501511Y-75498156D01*
X106415990Y-75338157D01*
X106363326Y-75164548D01*
X106345544Y-74984000D01*
X106363326Y-74803452D01*
X106415990Y-74629843D01*
X106501511Y-74469844D01*
X106537271Y-74426271D01*
X106616603Y-74329603D01*
X106713271Y-74250271D01*
X106756844Y-74214511D01*
X106916843Y-74128990D01*
X107090452Y-74076326D01*
X107180655Y-74067442D01*
X107225755Y-74063000D01*
X107776245Y-74063000D01*
X107821345Y-74067442D01*
X107821345Y-74067442D01*
G37*
G36*
X107821345Y-71527442D02*
G01*
X107911548Y-71536326D01*
X108085157Y-71588990D01*
X108245156Y-71674511D01*
X108268457Y-71693634D01*
X108385397Y-71789603D01*
X108464729Y-71886271D01*
X108500489Y-71929844D01*
X108586010Y-72089843D01*
X108638674Y-72263452D01*
X108656456Y-72444000D01*
X108638674Y-72624548D01*
X108586010Y-72798157D01*
X108500489Y-72958156D01*
X108464729Y-73001729D01*
X108385397Y-73098397D01*
X108288729Y-73177729D01*
X108245156Y-73213489D01*
X108085157Y-73299010D01*
X107911548Y-73351674D01*
X107821345Y-73360558D01*
X107776245Y-73365000D01*
X107225755Y-73365000D01*
X107180655Y-73360558D01*
X107090452Y-73351674D01*
X106916843Y-73299010D01*
X106756844Y-73213489D01*
X106713271Y-73177729D01*
X106616603Y-73098397D01*
X106537271Y-73001729D01*
X106501511Y-72958156D01*
X106415990Y-72798157D01*
X106363326Y-72624548D01*
X106345544Y-72444000D01*
X106363326Y-72263452D01*
X106415990Y-72089843D01*
X106501511Y-71929844D01*
X106537271Y-71886271D01*
X106616603Y-71789603D01*
X106733543Y-71693634D01*
X106756844Y-71674511D01*
X106916843Y-71588990D01*
X107090452Y-71536326D01*
X107180655Y-71527442D01*
X107225755Y-71523000D01*
X107776245Y-71523000D01*
X107821345Y-71527442D01*
X107821345Y-71527442D01*
G37*
G36*
X151993271Y-70328103D02*
G01*
X152049635Y-70333654D01*
X152266600Y-70399470D01*
X152266602Y-70399471D01*
X152466555Y-70506347D01*
X152641818Y-70650182D01*
X152785653Y-70825445D01*
X152892529Y-71025398D01*
X152892530Y-71025400D01*
X152958346Y-71242365D01*
X152980569Y-71468000D01*
X152960230Y-71674511D01*
X152958346Y-71693634D01*
X152892529Y-71910602D01*
X152785653Y-72110555D01*
X152641818Y-72285818D01*
X152466555Y-72429653D01*
X152266602Y-72536529D01*
X152266600Y-72536530D01*
X152049635Y-72602346D01*
X151993271Y-72607897D01*
X151880545Y-72619000D01*
X151767455Y-72619000D01*
X151654729Y-72607897D01*
X151598365Y-72602346D01*
X151381400Y-72536530D01*
X151381398Y-72536529D01*
X151181445Y-72429653D01*
X151006182Y-72285818D01*
X150862347Y-72110555D01*
X150755471Y-71910602D01*
X150689654Y-71693634D01*
X150687771Y-71674511D01*
X150667431Y-71468000D01*
X150689654Y-71242365D01*
X150755470Y-71025400D01*
X150755471Y-71025398D01*
X150862347Y-70825445D01*
X151006182Y-70650182D01*
X151181445Y-70506347D01*
X151381398Y-70399471D01*
X151381400Y-70399470D01*
X151598365Y-70333654D01*
X151654729Y-70328103D01*
X151767455Y-70317000D01*
X151880545Y-70317000D01*
X151993271Y-70328103D01*
X151993271Y-70328103D01*
G37*
G36*
X162661271Y-70328103D02*
G01*
X162717635Y-70333654D01*
X162934600Y-70399470D01*
X162934602Y-70399471D01*
X163134555Y-70506347D01*
X163309818Y-70650182D01*
X163453653Y-70825445D01*
X163560529Y-71025398D01*
X163560530Y-71025400D01*
X163626346Y-71242365D01*
X163648569Y-71468000D01*
X163628230Y-71674511D01*
X163626346Y-71693634D01*
X163560529Y-71910602D01*
X163453653Y-72110555D01*
X163309818Y-72285818D01*
X163134555Y-72429653D01*
X162934602Y-72536529D01*
X162934600Y-72536530D01*
X162717635Y-72602346D01*
X162661271Y-72607897D01*
X162548545Y-72619000D01*
X162435455Y-72619000D01*
X162322729Y-72607897D01*
X162266365Y-72602346D01*
X162049400Y-72536530D01*
X162049398Y-72536529D01*
X161849445Y-72429653D01*
X161674182Y-72285818D01*
X161530347Y-72110555D01*
X161423471Y-71910602D01*
X161357654Y-71693634D01*
X161355771Y-71674511D01*
X161335431Y-71468000D01*
X161357654Y-71242365D01*
X161423470Y-71025400D01*
X161423471Y-71025398D01*
X161530347Y-70825445D01*
X161674182Y-70650182D01*
X161849445Y-70506347D01*
X162049398Y-70399471D01*
X162049400Y-70399470D01*
X162266365Y-70333654D01*
X162322729Y-70328103D01*
X162435455Y-70317000D01*
X162548545Y-70317000D01*
X162661271Y-70328103D01*
X162661271Y-70328103D01*
G37*
G36*
X159105271Y-70328103D02*
G01*
X159161635Y-70333654D01*
X159378600Y-70399470D01*
X159378602Y-70399471D01*
X159578555Y-70506347D01*
X159753818Y-70650182D01*
X159897653Y-70825445D01*
X160004529Y-71025398D01*
X160004530Y-71025400D01*
X160070346Y-71242365D01*
X160092569Y-71468000D01*
X160072230Y-71674511D01*
X160070346Y-71693634D01*
X160004529Y-71910602D01*
X159897653Y-72110555D01*
X159753818Y-72285818D01*
X159578555Y-72429653D01*
X159378602Y-72536529D01*
X159378600Y-72536530D01*
X159161635Y-72602346D01*
X159105271Y-72607897D01*
X158992545Y-72619000D01*
X158879455Y-72619000D01*
X158766729Y-72607897D01*
X158710365Y-72602346D01*
X158493400Y-72536530D01*
X158493398Y-72536529D01*
X158293445Y-72429653D01*
X158118182Y-72285818D01*
X157974347Y-72110555D01*
X157867471Y-71910602D01*
X157801654Y-71693634D01*
X157799771Y-71674511D01*
X157779431Y-71468000D01*
X157801654Y-71242365D01*
X157867470Y-71025400D01*
X157867471Y-71025398D01*
X157974347Y-70825445D01*
X158118182Y-70650182D01*
X158293445Y-70506347D01*
X158493398Y-70399471D01*
X158493400Y-70399470D01*
X158710365Y-70333654D01*
X158766729Y-70328103D01*
X158879455Y-70317000D01*
X158992545Y-70317000D01*
X159105271Y-70328103D01*
X159105271Y-70328103D01*
G37*
G36*
X155549271Y-70328103D02*
G01*
X155605635Y-70333654D01*
X155822600Y-70399470D01*
X155822602Y-70399471D01*
X156022555Y-70506347D01*
X156197818Y-70650182D01*
X156341653Y-70825445D01*
X156448529Y-71025398D01*
X156448530Y-71025400D01*
X156514346Y-71242365D01*
X156536569Y-71468000D01*
X156516230Y-71674511D01*
X156514346Y-71693634D01*
X156448529Y-71910602D01*
X156341653Y-72110555D01*
X156197818Y-72285818D01*
X156022555Y-72429653D01*
X155822602Y-72536529D01*
X155822600Y-72536530D01*
X155605635Y-72602346D01*
X155549271Y-72607897D01*
X155436545Y-72619000D01*
X155323455Y-72619000D01*
X155210729Y-72607897D01*
X155154365Y-72602346D01*
X154937400Y-72536530D01*
X154937398Y-72536529D01*
X154737445Y-72429653D01*
X154562182Y-72285818D01*
X154418347Y-72110555D01*
X154311471Y-71910602D01*
X154245654Y-71693634D01*
X154243771Y-71674511D01*
X154223431Y-71468000D01*
X154245654Y-71242365D01*
X154311470Y-71025400D01*
X154311471Y-71025398D01*
X154418347Y-70825445D01*
X154562182Y-70650182D01*
X154737445Y-70506347D01*
X154937398Y-70399471D01*
X154937400Y-70399470D01*
X155154365Y-70333654D01*
X155210729Y-70328103D01*
X155323455Y-70317000D01*
X155436545Y-70317000D01*
X155549271Y-70328103D01*
X155549271Y-70328103D01*
G37*
G36*
X107821345Y-68987442D02*
G01*
X107911548Y-68996326D01*
X108085157Y-69048990D01*
X108245156Y-69134511D01*
X108288729Y-69170271D01*
X108385397Y-69249603D01*
X108464729Y-69346271D01*
X108500489Y-69389844D01*
X108586010Y-69549843D01*
X108638674Y-69723452D01*
X108656456Y-69904000D01*
X108638674Y-70084548D01*
X108586010Y-70258157D01*
X108500489Y-70418156D01*
X108464729Y-70461729D01*
X108385397Y-70558397D01*
X108288729Y-70637729D01*
X108245156Y-70673489D01*
X108085157Y-70759010D01*
X107911548Y-70811674D01*
X107821345Y-70820558D01*
X107776245Y-70825000D01*
X107225755Y-70825000D01*
X107180655Y-70820558D01*
X107090452Y-70811674D01*
X106916843Y-70759010D01*
X106756844Y-70673489D01*
X106713271Y-70637729D01*
X106616603Y-70558397D01*
X106537271Y-70461729D01*
X106501511Y-70418156D01*
X106415990Y-70258157D01*
X106363326Y-70084548D01*
X106345544Y-69904000D01*
X106363326Y-69723452D01*
X106415990Y-69549843D01*
X106501511Y-69389844D01*
X106537271Y-69346271D01*
X106616603Y-69249603D01*
X106713271Y-69170271D01*
X106756844Y-69134511D01*
X106916843Y-69048990D01*
X107090452Y-68996326D01*
X107180655Y-68987442D01*
X107225755Y-68983000D01*
X107776245Y-68983000D01*
X107821345Y-68987442D01*
X107821345Y-68987442D01*
G37*
G36*
X138610228Y-68069703D02*
G01*
X138765100Y-68133853D01*
X138904481Y-68226985D01*
X139023015Y-68345519D01*
X139116147Y-68484900D01*
X139180297Y-68639772D01*
X139213000Y-68804184D01*
X139213000Y-68971816D01*
X139180297Y-69136228D01*
X139116147Y-69291100D01*
X139023015Y-69430481D01*
X138904481Y-69549015D01*
X138765100Y-69642147D01*
X138610228Y-69706297D01*
X138445816Y-69739000D01*
X138278184Y-69739000D01*
X138113772Y-69706297D01*
X137958900Y-69642147D01*
X137819519Y-69549015D01*
X137700985Y-69430481D01*
X137607853Y-69291100D01*
X137543703Y-69136228D01*
X137511000Y-68971816D01*
X137511000Y-68804184D01*
X137543703Y-68639772D01*
X137607853Y-68484900D01*
X137700985Y-68345519D01*
X137819519Y-68226985D01*
X137958900Y-68133853D01*
X138113772Y-68069703D01*
X138278184Y-68037000D01*
X138445816Y-68037000D01*
X138610228Y-68069703D01*
X138610228Y-68069703D01*
G37*
G36*
X132514228Y-68069703D02*
G01*
X132669100Y-68133853D01*
X132808481Y-68226985D01*
X132927015Y-68345519D01*
X133020147Y-68484900D01*
X133084297Y-68639772D01*
X133117000Y-68804184D01*
X133117000Y-68971816D01*
X133084297Y-69136228D01*
X133020147Y-69291100D01*
X132927015Y-69430481D01*
X132808481Y-69549015D01*
X132669100Y-69642147D01*
X132514228Y-69706297D01*
X132349816Y-69739000D01*
X132182184Y-69739000D01*
X132017772Y-69706297D01*
X131862900Y-69642147D01*
X131723519Y-69549015D01*
X131604985Y-69430481D01*
X131511853Y-69291100D01*
X131447703Y-69136228D01*
X131415000Y-68971816D01*
X131415000Y-68804184D01*
X131447703Y-68639772D01*
X131511853Y-68484900D01*
X131604985Y-68345519D01*
X131723519Y-68226985D01*
X131862900Y-68133853D01*
X132017772Y-68069703D01*
X132182184Y-68037000D01*
X132349816Y-68037000D01*
X132514228Y-68069703D01*
X132514228Y-68069703D01*
G37*
G36*
X108510561Y-66446966D02*
G01*
X108543383Y-66456923D01*
X108573632Y-66473092D01*
X108600148Y-66494852D01*
X108621908Y-66521368D01*
X108638077Y-66551617D01*
X108648034Y-66584439D01*
X108652000Y-66624713D01*
X108652000Y-68103287D01*
X108648034Y-68143561D01*
X108638077Y-68176383D01*
X108621908Y-68206632D01*
X108600148Y-68233148D01*
X108573632Y-68254908D01*
X108543383Y-68271077D01*
X108510561Y-68281034D01*
X108470287Y-68285000D01*
X106531713Y-68285000D01*
X106491439Y-68281034D01*
X106458617Y-68271077D01*
X106428368Y-68254908D01*
X106401852Y-68233148D01*
X106380092Y-68206632D01*
X106363923Y-68176383D01*
X106353966Y-68143561D01*
X106350000Y-68103287D01*
X106350000Y-66624713D01*
X106353966Y-66584439D01*
X106363923Y-66551617D01*
X106380092Y-66521368D01*
X106401852Y-66494852D01*
X106428368Y-66473092D01*
X106458617Y-66456923D01*
X106491439Y-66446966D01*
X106531713Y-66443000D01*
X108470287Y-66443000D01*
X108510561Y-66446966D01*
X108510561Y-66446966D01*
G37*
G36*
X145659000Y-68194113D02*
G01*
X143957000Y-68194113D01*
X143957000Y-66492113D01*
X145659000Y-66492113D01*
X145659000Y-68194113D01*
X145659000Y-68194113D01*
G37*
G36*
X145056228Y-64524816D02*
G01*
X145211100Y-64588966D01*
X145350481Y-64682098D01*
X145469015Y-64800632D01*
X145562147Y-64940013D01*
X145626297Y-65094885D01*
X145659000Y-65259297D01*
X145659000Y-65426929D01*
X145626297Y-65591341D01*
X145562147Y-65746213D01*
X145469015Y-65885594D01*
X145350481Y-66004128D01*
X145211100Y-66097260D01*
X145056228Y-66161410D01*
X144891816Y-66194113D01*
X144724184Y-66194113D01*
X144559772Y-66161410D01*
X144404900Y-66097260D01*
X144265519Y-66004128D01*
X144146985Y-65885594D01*
X144053853Y-65746213D01*
X143989703Y-65591341D01*
X143957000Y-65426929D01*
X143957000Y-65259297D01*
X143989703Y-65094885D01*
X144053853Y-64940013D01*
X144146985Y-64800632D01*
X144265519Y-64682098D01*
X144404900Y-64588966D01*
X144559772Y-64524816D01*
X144724184Y-64492113D01*
X144891816Y-64492113D01*
X145056228Y-64524816D01*
X145056228Y-64524816D01*
G37*
G36*
X133814228Y-63069703D02*
G01*
X133969100Y-63133853D01*
X134108481Y-63226985D01*
X134227015Y-63345519D01*
X134320147Y-63484900D01*
X134384297Y-63639772D01*
X134417000Y-63804184D01*
X134417000Y-63971816D01*
X134384297Y-64136228D01*
X134320147Y-64291100D01*
X134227015Y-64430481D01*
X134108481Y-64549015D01*
X133969100Y-64642147D01*
X133814228Y-64706297D01*
X133649816Y-64739000D01*
X133482184Y-64739000D01*
X133317772Y-64706297D01*
X133162900Y-64642147D01*
X133023519Y-64549015D01*
X132904985Y-64430481D01*
X132811853Y-64291100D01*
X132747703Y-64136228D01*
X132715000Y-63971816D01*
X132715000Y-63804184D01*
X132747703Y-63639772D01*
X132811853Y-63484900D01*
X132904985Y-63345519D01*
X133023519Y-63226985D01*
X133162900Y-63133853D01*
X133317772Y-63069703D01*
X133482184Y-63037000D01*
X133649816Y-63037000D01*
X133814228Y-63069703D01*
X133814228Y-63069703D01*
G37*
G36*
X138610228Y-63069703D02*
G01*
X138765100Y-63133853D01*
X138904481Y-63226985D01*
X139023015Y-63345519D01*
X139116147Y-63484900D01*
X139180297Y-63639772D01*
X139213000Y-63804184D01*
X139213000Y-63971816D01*
X139180297Y-64136228D01*
X139116147Y-64291100D01*
X139023015Y-64430481D01*
X138904481Y-64549015D01*
X138765100Y-64642147D01*
X138610228Y-64706297D01*
X138445816Y-64739000D01*
X138278184Y-64739000D01*
X138113772Y-64706297D01*
X137958900Y-64642147D01*
X137819519Y-64549015D01*
X137700985Y-64430481D01*
X137607853Y-64291100D01*
X137543703Y-64136228D01*
X137511000Y-63971816D01*
X137511000Y-63804184D01*
X137543703Y-63639772D01*
X137607853Y-63484900D01*
X137700985Y-63345519D01*
X137819519Y-63226985D01*
X137958900Y-63133853D01*
X138113772Y-63069703D01*
X138278184Y-63037000D01*
X138445816Y-63037000D01*
X138610228Y-63069703D01*
X138610228Y-63069703D01*
G37*
G36*
X160087000Y-62459000D02*
G01*
X157785000Y-62459000D01*
X157785000Y-60157000D01*
X160087000Y-60157000D01*
X160087000Y-62459000D01*
X160087000Y-62459000D01*
G37*
G36*
X156531000Y-62459000D02*
G01*
X154229000Y-62459000D01*
X154229000Y-60157000D01*
X156531000Y-60157000D01*
X156531000Y-62459000D01*
X156531000Y-62459000D01*
G37*
G36*
X152975000Y-62459000D02*
G01*
X150673000Y-62459000D01*
X150673000Y-60157000D01*
X152975000Y-60157000D01*
X152975000Y-62459000D01*
X152975000Y-62459000D01*
G37*
G36*
X163643000Y-62459000D02*
G01*
X161341000Y-62459000D01*
X161341000Y-60157000D01*
X163643000Y-60157000D01*
X163643000Y-62459000D01*
X163643000Y-62459000D01*
G37*
M02*
