M48
; DRILL file {KiCad 6.0.0-unknown-r15630-3caa4376} date Thu 16 May 2019 13:37:46 BST
; FORMAT={-:-/ absolute / inch / decimal}
; #@! TF.CreationDate,2019-05-16T13:37:46+01:00
; #@! TF.GenerationSoftware,Kicad,Pcbnew,6.0.0-unknown-r15630-3caa4376
; #@! TF.FileFunction,Plated,1,2,PTH
FMAT,2
INCH
T1C0.0157
T2C0.0236
T3C0.0295
T4C0.0315
T5C0.0394
T6C0.0433
T7C0.0472
%
G90
G05
T1
X3.3161Y-2.7741
X3.3161Y-3.5041
X3.7161Y-2.3691
X3.7161Y-3.8841
X3.9961Y-3.5041
X4.0061Y-2.7741
X4.2811Y-2.3691
X4.4061Y-3.0341
X4.4211Y-3.2341
X4.5011Y-3.0291
X4.8461Y-2.3691
X4.8861Y-3.2591
X4.9411Y-3.4791
X5.3511Y-2.8891
X5.6011Y-3.1291
X5.6011Y-3.2541
X5.6361Y-3.9441
X5.6911Y-3.1241
X5.7961Y-3.1241
X5.7961Y-3.2491
X5.8211Y-2.9041
X5.8911Y-2.5391
X5.9461Y-3.6091
T2
X5.2073Y-2.7121
X5.2585Y-2.5153
T3
X4.855Y-2.9991
X4.855Y-3.0491
X4.855Y-3.0991
X5.0511Y-3.1391
X5.0511Y-3.1891
X5.0511Y-3.2391
T4
X5.2911Y-3.1441
X5.2911Y-3.3409
X6.1561Y-3.4541
X6.1561Y-3.8541
X4.9373Y-3.3621
X4.9373Y-3.7621
X6.4061Y-3.4541
X6.4061Y-3.8541
X5.5477Y-3.4441
X5.6461Y-3.4441
X5.4473Y-2.5153
X5.4473Y-2.7121
X4.4161Y-3.4491
X4.4161Y-3.5475
X5.2673Y-3.5653
X5.2673Y-3.7621
X5.4473Y-3.5578
X5.4473Y-3.6578
X5.4473Y-3.7578
X5.4473Y-3.8578
X5.7473Y-3.5578
X5.7473Y-3.6578
X5.7473Y-3.7578
X5.7473Y-3.8578
X5.0673Y-3.3621
X5.0673Y-3.7621
X5.7011Y-2.5726
X5.7011Y-2.6513
X6.2811Y-3.4541
X6.2811Y-3.8541
X6.0311Y-3.4541
X6.0311Y-3.8541
T5
X5.8811Y-3.3591
X5.8811Y-3.4591
X5.8811Y-3.5591
X5.8811Y-3.6591
X5.8811Y-3.7591
X5.8811Y-3.8591
T6
X4.8033Y-3.2371
X4.8033Y-3.6371
X4.6653Y-3.2371
X4.6653Y-3.6371
X4.5273Y-3.2371
X4.5273Y-3.6371
X5.9773Y-2.4137
X5.9773Y-2.8137
X6.0361Y-2.9991
X6.0361Y-3.0991
X6.0361Y-3.1991
X6.2573Y-2.4137
X6.2573Y-2.8137
X6.1173Y-2.4137
X6.1173Y-2.8137
X6.3973Y-2.4137
X6.3973Y-2.8137
T7
X4.2323Y-2.6521
X4.2323Y-2.7521
X4.2323Y-2.8521
X4.2323Y-2.9521
X4.2323Y-3.0521
X4.2323Y-3.1521
X4.2323Y-3.2521
X4.2323Y-3.3521
X4.2323Y-3.4521
X4.2323Y-3.5521
T0
M30
